<svg viewBox="0 0 37 70" fill="none" xmlns="http://www.w3.org/2000/svg">
<path d="M5.1001 58.15C4.3001 58.15 3.62343 57.9667 3.0701 57.6C3.00343 57.56 2.9701 57.5067 2.9701 57.44C2.9701 57.3867 2.9901 57.33 3.0301 57.27L3.3901 56.66C3.44343 56.58 3.49343 56.54 3.5401 56.54C3.5801 56.54 3.63343 56.5633 3.7001 56.61C4.04676 56.8433 4.42676 56.96 4.8401 56.96C5.15343 56.96 5.3801 56.8833 5.5201 56.73C5.66676 56.57 5.7401 56.33 5.7401 56.01V51.64C5.7401 51.4933 5.77343 51.3833 5.8401 51.31C5.91343 51.2367 6.03343 51.2 6.2001 51.2H6.9401C7.10676 51.2 7.22343 51.2367 7.2901 51.31C7.36343 51.3833 7.4001 51.4933 7.4001 51.64V56.01C7.4001 56.6633 7.20343 57.1833 6.8101 57.57C6.42343 57.9567 5.85343 58.15 5.1001 58.15ZM8.10619 58C7.98619 58 7.92619 57.9433 7.92619 57.83C7.92619 57.7833 7.93619 57.73 7.95619 57.67L10.5462 51.5C10.5929 51.3867 10.6429 51.31 10.6962 51.27C10.7562 51.2233 10.8395 51.2 10.9462 51.2H11.6762C11.7829 51.2 11.8629 51.2233 11.9162 51.27C11.9695 51.31 12.0195 51.3867 12.0662 51.5L14.6562 57.67C14.6762 57.73 14.6862 57.7833 14.6862 57.83C14.6862 57.9433 14.6262 58 14.5062 58H13.2962C13.2029 58 13.1329 57.9867 13.0862 57.96C13.0462 57.9267 13.0095 57.87 12.9762 57.79L12.5162 56.61H10.0862L9.63619 57.79C9.60286 57.87 9.56286 57.9267 9.51619 57.96C9.47619 57.9867 9.40952 58 9.31619 58H8.10619ZM12.1362 55.46L11.3062 53.3L10.4662 55.46H12.1362ZM15.552 58C15.3987 58 15.2954 57.97 15.242 57.91C15.1954 57.85 15.172 57.7433 15.172 57.59C15.172 57.4433 15.1887 57.3233 15.222 57.23C15.2554 57.1367 15.3254 57.0167 15.432 56.87L18.722 52.42H15.722C15.562 52.42 15.4454 52.3867 15.372 52.32C15.3054 52.2467 15.272 52.1367 15.272 51.99V51.62C15.272 51.4733 15.3054 51.3667 15.372 51.3C15.4454 51.2333 15.562 51.2 15.722 51.2H20.502C20.6554 51.2 20.7587 51.2333 20.812 51.3C20.8654 51.36 20.892 51.4633 20.892 51.61C20.892 51.7633 20.8754 51.8833 20.842 51.97C20.8087 52.0567 20.7354 52.18 20.622 52.34L17.352 56.79H20.462C20.622 56.79 20.7354 56.8233 20.802 56.89C20.8754 56.9567 20.912 57.0667 20.912 57.22V57.58C20.912 57.7267 20.8754 57.8333 20.802 57.9C20.7354 57.9667 20.622 58 20.462 58H15.552ZM21.763 58C21.6097 58 21.5063 57.97 21.453 57.91C21.4063 57.85 21.383 57.7433 21.383 57.59C21.383 57.4433 21.3997 57.3233 21.433 57.23C21.4663 57.1367 21.5363 57.0167 21.643 56.87L24.933 52.42H21.933C21.773 52.42 21.6563 52.3867 21.583 52.32C21.5163 52.2467 21.483 52.1367 21.483 51.99V51.62C21.483 51.4733 21.5163 51.3667 21.583 51.3C21.6563 51.2333 21.773 51.2 21.933 51.2H26.713C26.8663 51.2 26.9697 51.2333 27.023 51.3C27.0763 51.36 27.103 51.4633 27.103 51.61C27.103 51.7633 27.0863 51.8833 27.053 51.97C27.0197 52.0567 26.9463 52.18 26.833 52.34L23.563 56.79H26.673C26.833 56.79 26.9463 56.8233 27.013 56.89C27.0863 56.9567 27.123 57.0667 27.123 57.22V57.58C27.123 57.7267 27.0863 57.8333 27.013 57.9C26.9463 57.9667 26.833 58 26.673 58H21.763Z" fill="#87AEC2"/>
<path d="M27.9159 2.85653L14.3337 24.9313C14.3265 24.948 14.3176 24.968 14.3073 24.9911C14.276 25.0611 14.2307 25.1596 14.1735 25.277C14.0599 25.5103 13.8952 25.8265 13.6944 26.1471C13.4971 26.4621 13.2464 26.8116 12.9548 27.0911C12.6816 27.3528 12.2582 27.6633 11.722 27.6633C11.0812 27.6633 10.5372 27.465 10.1741 27.0302C9.83261 26.6213 9.75671 26.1261 9.75671 25.749C9.75671 25.3633 9.83564 24.9992 9.9057 24.7475C9.94174 24.618 9.97789 24.5096 10.0056 24.4321C10.0196 24.3932 10.0315 24.3616 10.0405 24.3386L10.0516 24.3105L10.0553 24.3014L10.0567 24.2982L10.0572 24.2969L10.0574 24.2963C10.0576 24.2961 10.0577 24.2958 10.6996 24.5638L10.0577 24.2958L14.4849 13.692H4.25559C4.48729 14.1347 4.75335 14.6794 5.00104 15.2727C5.31618 16.0275 5.61122 16.8836 5.76117 17.7217C5.90861 18.5457 5.93239 19.4413 5.60867 20.2166C4.62228 22.5791 3.72217 24.7632 3.72217 26.9133C3.72217 28.6141 3.96265 30.8019 4.8545 32.5375C5.29525 33.3952 5.88479 34.1225 6.66589 34.637C7.44239 35.1485 8.45024 35.4775 9.77756 35.4775C12.0128 35.4775 13.5532 34.679 14.5352 33.895C15.0296 33.5003 15.385 33.1067 15.6143 32.816C15.7287 32.6709 15.811 32.5524 15.8628 32.4734C15.8887 32.4339 15.9069 32.4044 15.9177 32.3866L15.9255 32.3733L30.4901 4.46605C30.4925 4.46076 30.4951 4.45501 30.498 4.44882C30.5105 4.42208 30.5276 4.38705 30.5496 4.34526C30.5934 4.26191 30.6574 4.15031 30.7441 4.02333C30.9163 3.77134 31.1868 3.44606 31.579 3.16425C32.228 2.69788 33.1332 2.40675 34.3047 2.62661V1.7324C31.786 0.336933 30.248 0.685555 29.3638 1.21502C28.8682 1.51177 28.5141 1.90261 28.282 2.22692C28.1669 2.38776 28.0849 2.52787 28.0332 2.62437C28.0074 2.67245 27.9895 2.7092 27.9789 2.73166C27.9736 2.74287 27.9702 2.75047 27.9686 2.75406C27.9682 2.75497 27.9682 2.75486 27.9681 2.75525L27.9676 2.75627L27.9676 2.75642L27.9466 2.80658L27.9159 2.85653Z" stroke="#87AEC2" stroke-width="1.5"/>
<path d="M2.75 12.9424C2.75 14.3057 3.50131 15.2506 4.73235 15.8955C5.99078 16.5548 7.68139 16.8496 9.29149 16.8496C10.9016 16.8496 12.5922 16.5548 13.8506 15.8955C15.0817 15.2506 15.833 14.3057 15.833 12.9424C15.833 11.5785 15.0816 10.6336 13.8507 9.98894C12.5923 9.32984 10.9017 9.03528 9.29149 9.03528C7.68129 9.03528 5.99069 9.32984 4.7323 9.98894C3.50138 10.6336 2.75 11.5785 2.75 12.9424Z" stroke="#87AEC2" stroke-width="1.5"/>
<path d="M20.4715 15.6846C21.0096 15.6846 21.6659 15.1095 21.6659 14.106C21.6659 13.1026 21.0096 12.5275 20.4715 12.5275C19.9334 12.5275 19.2771 13.1026 19.2771 14.106C19.2771 15.1095 19.9334 15.6846 20.4715 15.6846Z" fill="white" stroke="#87AEC2" stroke-width="1.5"/>
<path d="M23.3882 11.0278C23.9264 11.0278 24.5826 10.4527 24.5826 9.44931C24.5826 8.44588 23.9264 7.87079 23.3882 7.87079C22.8501 7.87079 22.1938 8.44588 22.1938 9.44931C22.1938 10.4527 22.8501 11.0278 23.3882 11.0278Z" fill="white" stroke="#87AEC2" stroke-width="1.5"/>
<path d="M26.3047 6.37012C26.8429 6.37012 27.4991 5.79503 27.4991 4.79156C27.4991 3.7881 26.8429 3.21301 26.3047 3.21301C25.7666 3.21301 25.1104 3.7881 25.1104 4.79156C25.1104 5.79503 25.7666 6.37012 26.3047 6.37012Z" fill="white" stroke="#87AEC2" stroke-width="1.5"/>
<path d="M35.053 5.95605C34.7614 5.95605 34.4649 5.87688 34.1849 5.71039L32.2405 4.54611C31.2799 3.96979 30.8911 2.57148 31.3713 1.42117C31.8506 0.273183 33.0173 -0.197188 33.9797 0.379133L35.9241 1.54342C36.8856 2.11974 37.2745 3.51804 36.7943 4.66836C36.453 5.48452 35.7666 5.95605 35.053 5.95605Z" fill="#87AEC2"/>
<path fill-rule="evenodd" clip-rule="evenodd" d="M17.8132 23.6821L16.5804 25.4844L10.5625 19.5838L11.7933 17.7826L17.8132 23.6821Z" fill="#87AEC2"/>
</svg>
