<svg width="52" height="52" viewBox="0 0 52 52" fill="none" xmlns="http://www.w3.org/2000/svg">
<circle cx="25.508" cy="25.508" r="24.508" stroke="white" stroke-width="2"/>
<path fill-rule="evenodd" clip-rule="evenodd" d="M19.8616 18.201C19.8616 15.0826 22.3895 12.5547 25.5079 12.5547C28.6262 12.5547 31.1542 15.0826 31.1542 18.201C31.1542 21.3194 28.6262 23.8473 25.5079 23.8473C22.3895 23.8473 19.8616 21.3194 19.8616 18.201ZM25.5079 14.5475C23.4901 14.5475 21.8544 16.1832 21.8544 18.201C21.8544 20.2188 23.4901 21.8545 25.5079 21.8545C27.5256 21.8545 29.1614 20.2188 29.1614 18.201C29.1614 16.1832 27.5256 14.5475 25.5079 14.5475Z" fill="white"/>
<path fill-rule="evenodd" clip-rule="evenodd" d="M18.3538 13.8146C18.6686 14.266 18.558 14.8871 18.1066 15.2019C17.1577 15.8638 16.5402 16.9604 16.5402 18.2011C16.5402 19.5289 17.2479 20.6924 18.3115 21.3333C18.7828 21.6173 18.9347 22.2297 18.6507 22.701C18.3667 23.1724 17.7543 23.3242 17.283 23.0402C15.6459 22.0537 14.5474 20.2562 14.5474 18.2011C14.5474 16.2815 15.5062 14.5861 16.9665 13.5674C17.4179 13.2526 18.039 13.3633 18.3538 13.8146Z" fill="white"/>
<path fill-rule="evenodd" clip-rule="evenodd" d="M32.6619 13.8146C32.9767 13.3633 33.5979 13.2526 34.0492 13.5674C35.5096 14.5861 36.4684 16.2815 36.4684 18.2011C36.4684 20.1207 35.5096 21.8162 34.0492 22.8348C33.5978 23.1496 32.9767 23.0389 32.6619 22.5876C32.3471 22.1362 32.4578 21.5151 32.9091 21.2003C33.8581 20.5384 34.4756 19.4418 34.4756 18.2011C34.4756 16.9604 33.8581 15.8638 32.9091 15.2019C32.4578 14.8871 32.3471 14.266 32.6619 13.8146Z" fill="white"/>
<path fill-rule="evenodd" clip-rule="evenodd" d="M25.4716 27.1685H25.5443C26.7515 27.1685 27.7083 27.1684 28.4834 27.2213C29.2753 27.2754 29.9501 27.3879 30.58 27.6488C32.1262 28.2893 33.3548 29.5178 33.9952 31.0641C34.2562 31.694 34.3687 32.3688 34.4227 33.1606C34.4756 33.9357 34.4756 34.8925 34.4756 36.0997V37.4647C34.4756 38.015 34.0295 38.4611 33.4792 38.4611H17.5367C16.9864 38.4611 16.5403 38.015 16.5403 37.4647L16.5403 36.0997C16.5403 34.8925 16.5403 33.9357 16.5932 33.1606C16.6472 32.3688 16.7597 31.694 17.0207 31.0641C17.6611 29.5178 18.8896 28.2893 20.4359 27.6488M25.4716 27.1685C24.2643 27.1685 23.3076 27.1684 22.5324 27.2213ZM22.5324 27.2213C21.7406 27.2754 21.0658 27.3879 20.4359 27.6488ZM22.6681 29.2095C21.9777 29.2566 21.5452 29.3464 21.1985 29.49C20.1406 29.9282 19.3 30.7687 18.8618 31.8267C18.7182 32.1733 18.6285 32.6059 18.5814 33.2963C18.5336 33.9956 18.5331 34.8844 18.5331 36.1361V36.4683H32.4828V36.1361C32.4828 34.8844 32.4822 33.9956 32.4345 33.2963C32.3874 32.6059 32.2977 32.1733 32.1541 31.8267C31.7159 30.7687 30.8753 29.9282 29.8174 29.49C29.4707 29.3464 29.0381 29.2566 28.3478 29.2095C27.6485 29.1618 26.7596 29.1613 25.5079 29.1613C24.2563 29.1613 23.3674 29.1618 22.6681 29.2095Z" fill="white"/>
<path fill-rule="evenodd" clip-rule="evenodd" d="M35.0038 28.2918C35.2537 27.8015 35.8537 27.6065 36.344 27.8564C37.5314 28.4614 38.4968 29.4268 39.1019 30.6142C39.4749 31.3465 39.6365 32.1485 39.7139 33.0962C39.7897 34.023 39.7897 35.1729 39.7896 36.6239V37.4648C39.7896 38.0151 39.3435 38.4612 38.7932 38.4612C38.2429 38.4612 37.7968 38.0151 37.7968 37.4648V36.6677C37.7968 35.1631 37.7961 34.0946 37.7277 33.2585C37.6604 32.434 37.5323 31.9235 37.3263 31.519M35.0038 28.2918C34.754 28.7821 34.949 29.3821 35.4393 29.632ZM35.4393 29.632C35.8573 29.845 36.2351 30.1232 36.5598 30.4539C36.8662 30.7659 37.1253 31.1245 37.3263 31.519" fill="white"/>
<path d="M36.5598 30.4539L35.0038 28.2918L35.4393 29.632C35.8573 29.845 36.2351 30.1232 36.5598 30.4539Z" fill="white"/>
<path fill-rule="evenodd" clip-rule="evenodd" d="M16.0119 28.2918C16.2617 28.7821 16.0667 29.3821 15.5764 29.632C14.764 30.0459 14.1035 30.7065 13.6895 31.519C13.4834 31.9235 13.3553 32.434 13.288 33.2585C13.2197 34.0946 13.2189 35.1631 13.2189 36.6677V37.4648C13.2189 38.0151 12.7728 38.4612 12.2225 38.4612C11.6722 38.4612 11.2261 38.0151 11.2261 37.4648L11.2261 36.6238C11.2261 35.1729 11.2261 34.023 11.3018 33.0962C11.3792 32.1484 11.5408 31.3465 11.9139 30.6142C12.5189 29.4268 13.4843 28.4614 14.6717 27.8564C15.162 27.6065 15.762 27.8015 16.0119 28.2918Z" fill="white"/>
</svg>
