<svg width="19" height="18" viewBox="0 0 19 18" fill="none" xmlns="http://www.w3.org/2000/svg">
<g clip-path="url(#clip0_1407_7135)">
<path fill-rule="evenodd" clip-rule="evenodd" d="M12.6556 4.91101C11.7264 4.02474 10.4862 3.54191 9.20312 3.56176C6.85515 3.56176 4.86104 5.1458 4.15003 7.2788C3.77303 8.39656 3.77303 9.60697 4.15003 10.7247H4.15333C4.86764 12.8544 6.85845 14.4385 9.20642 14.4385C10.4184 14.4385 11.459 14.1285 12.2654 13.5809V13.5787C13.2145 12.9504 13.8627 11.9616 14.0644 10.8438H9.20312V7.37807H17.6922C17.798 7.97994 17.8476 8.59504 17.8476 9.20684C17.8476 11.9442 16.8693 14.2586 15.1672 15.8261L15.1689 15.8274C13.6775 17.2031 11.6305 18.0001 9.20312 18.0001C5.80021 18.0001 2.68833 16.0821 1.16049 13.0429C-0.116 10.4999 -0.115997 7.50372 1.1605 4.96064C2.68833 1.9182 5.80021 0.000118218 9.20312 0.000118218C11.4386 -0.0263378 13.5981 0.81364 15.2252 2.34147L12.6556 4.91101Z" fill="white"/>
</g>
<defs>
<clipPath id="clip0_1407_7135">
<rect width="18" height="18" fill="white" transform="translate(0.0229492)"/>
</clipPath>
</defs>
</svg>
