<svg width="18" height="19" viewBox="0 0 18 19" fill="none" xmlns="http://www.w3.org/2000/svg">
<g opacity="0.7">
<path fill-rule="evenodd" clip-rule="evenodd" d="M9.00033 6.45825C6.8142 6.45825 5.04199 8.23046 5.04199 10.4166C5.04199 12.6027 6.8142 14.3749 9.00033 14.3749C11.1865 14.3749 12.9587 12.6027 12.9587 10.4166C12.9587 8.23046 11.1865 6.45825 9.00033 6.45825ZM6.29199 10.4166C6.29199 8.92081 7.50455 7.70825 9.00033 7.70825C10.4961 7.70825 11.7087 8.92081 11.7087 10.4166C11.7087 11.9124 10.4961 13.1249 9.00033 13.1249C7.50455 13.1249 6.29199 11.9124 6.29199 10.4166Z" fill="white"/>
<path fill-rule="evenodd" clip-rule="evenodd" d="M6.70866 0.208252C5.55807 0.208252 4.62533 1.14099 4.62533 2.29159V2.44039C4.62533 2.81845 4.31885 3.12492 3.9408 3.12492C1.78755 3.12492 0.0419923 4.87048 0.0419923 7.02373V10.866C0.0419871 12.2022 0.0419829 13.2497 0.121548 14.0865C0.202648 14.9395 0.3708 15.6379 0.748092 16.2536C1.14319 16.8983 1.68528 17.4404 2.33002 17.8355C2.9457 18.2128 3.64412 18.3809 4.49708 18.462C5.33389 18.5416 6.38134 18.5416 7.71746 18.5416H10.2831C11.6193 18.5416 12.6668 18.5416 13.5036 18.462C14.3565 18.3809 15.0549 18.2128 15.6706 17.8355C16.3154 17.4404 16.8575 16.8983 17.2526 16.2536C17.6299 15.6379 17.798 14.9395 17.8791 14.0865C17.9587 13.2497 17.9587 12.2022 17.9587 10.8661V7.02373C17.9587 4.87047 16.2131 3.12492 14.0598 3.12492C13.6818 3.12492 13.3753 2.81845 13.3753 2.44039V2.29159C13.3753 1.14099 12.4426 0.208252 11.292 0.208252H6.70866ZM5.87533 2.29159C5.87533 1.83135 6.24842 1.45825 6.70866 1.45825H11.292C11.7522 1.45825 12.1253 1.83135 12.1253 2.29159V2.44039C12.1253 3.5088 12.9914 4.37492 14.0598 4.37492C15.5227 4.37492 16.7087 5.56083 16.7087 7.02373V10.8333C16.7087 12.2093 16.708 13.1974 16.6347 13.9682C16.5623 14.7296 16.4235 15.2142 16.1868 15.6004C15.8947 16.077 15.4941 16.4777 15.0175 16.7697C14.6312 17.0064 14.1467 17.1452 13.3853 17.2176C12.6145 17.2909 11.6264 17.2916 10.2503 17.2916H7.75033C6.37429 17.2916 5.38616 17.2909 4.6154 17.2176C3.85394 17.1452 3.36941 17.0064 2.98314 16.7697C2.50659 16.4777 2.10592 16.077 1.81389 15.6004C1.57718 15.2142 1.43834 14.7296 1.36594 13.9682C1.29265 13.1974 1.29199 12.2093 1.29199 10.8333V7.02373C1.29199 5.56083 2.4779 4.37492 3.9408 4.37492C5.00921 4.37492 5.87533 3.5088 5.87533 2.44039V2.29159Z" fill="white"/>
<path d="M13.167 7.08325C13.167 7.54349 13.5401 7.91658 14.0003 7.91658C14.4606 7.91658 14.8337 7.54349 14.8337 7.08325C14.8337 6.62301 14.4606 6.24992 14.0003 6.24992C13.5401 6.24992 13.167 6.62301 13.167 7.08325Z" fill="white"/>
</g>
</svg>
