<svg width="13" height="16" viewBox="0 0 13 16" fill="none" xmlns="http://www.w3.org/2000/svg">
<path d="M9.50376 1.81284L9.57881 1.85617C10.2272 2.23051 10.768 2.54267 11.1639 2.84821C11.5818 3.1707 11.9135 3.54087 12.0524 4.05935C12.1913 4.57784 12.0892 5.06425 11.8885 5.55249C11.7492 5.89138 11.5444 6.2722 11.2976 6.70659L10.7682 6.39192L10.7614 6.38792L4.99029 3.05598L4.45059 2.73789C4.70066 2.31198 4.92598 1.94821 5.14781 1.66075C5.4703 1.24285 5.84047 0.91116 6.35895 0.772232C6.87744 0.633304 7.36385 0.735475 7.85209 0.936142C8.31465 1.12625 8.85536 1.43845 9.50376 1.81284Z" fill="#818181"/>
<path d="M3.8244 3.81978L0.926089 8.83971C0.677933 9.26871 0.481717 9.60792 0.40902 9.99376C0.336324 10.3796 0.395647 10.767 0.470672 11.2569L0.490885 11.3893C0.629374 12.2987 0.743524 13.0484 0.915691 13.6168C1.09575 14.2114 1.37255 14.726 1.91694 15.0403C2.46133 15.3546 3.04539 15.337 3.65029 15.1957C4.22868 15.0605 4.93496 14.7846 5.79181 14.4498L5.9166 14.4011C6.37838 14.2211 6.7435 14.0788 7.0413 13.8229C7.3391 13.567 7.53475 13.2275 7.7822 12.7981L10.6737 7.78985L10.1329 7.46847L4.35801 4.13431L3.8244 3.81978Z" fill="#818181"/>
</svg>
