<svg width="20" height="20" viewBox="0 0 20 20" fill="none" xmlns="http://www.w3.org/2000/svg">
<path d="M17.5 10C17.5 14.1421 14.1421 17.5 10 17.5C5.85786 17.5 2.5 14.1421 2.5 10C2.5 5.85786 5.85786 2.5 10 2.5C14.1421 2.5 17.5 5.85786 17.5 10Z" fill="white"/>
<path fill-rule="evenodd" clip-rule="evenodd" d="M9.55766 1.18364C9.80291 0.938681 10.2003 0.938804 10.4454 1.18391L12.4677 3.20621H16.1659C16.5127 3.20621 16.7938 3.48733 16.7938 3.83411V7.53232L18.8161 9.55462C19.0612 9.79973 19.0613 10.1971 18.8164 10.4423L16.7938 12.4675V16.1659C16.7938 16.5127 16.5127 16.7938 16.1659 16.7938H12.4677L10.4454 18.8161C10.2003 19.0612 9.80291 19.0613 9.55766 18.8164L7.53259 16.7938H3.8341C3.48732 16.7938 3.2062 16.5127 3.2062 16.1659V12.4675L1.18363 10.4423C0.938682 10.1971 0.938806 9.79973 1.18391 9.55462L3.2062 7.53232V3.83411C3.2062 3.48733 3.48732 3.20621 3.8341 3.20621H7.53259L9.55766 1.18364ZM10.0011 2.51563L8.23617 4.27838C8.11844 4.39597 7.95884 4.46202 7.79245 4.46202H4.46201V7.7924C4.46201 7.95893 4.39586 8.11864 4.2781 8.2364L2.51562 9.9989L4.27838 11.7639C4.39597 11.8816 4.46201 12.0412 4.46201 12.2076V15.538H7.79245C7.95884 15.538 8.11844 15.604 8.23617 15.7216L10.0011 17.4844L11.7636 15.7219C11.8814 15.6041 12.0411 15.538 12.2076 15.538H15.538V12.2076C15.538 12.0412 15.604 11.8816 15.7216 11.7639L17.4844 9.9989L15.7219 8.2364C15.6041 8.11865 15.538 7.95894 15.538 7.7924V4.46202H12.2076C12.0411 4.46202 11.8814 4.39587 11.7636 4.27811L10.0011 2.51563Z" fill="#96A4F7" stroke="#90A7F7" stroke-width="0.2" stroke-miterlimit="10" stroke-linecap="round" stroke-linejoin="round"/>
<path fill-rule="evenodd" clip-rule="evenodd" d="M13.1989 7.92613C13.3087 8.03596 13.3087 8.21404 13.1989 8.32387L9.44887 12.0739C9.33904 12.1837 9.16096 12.1837 9.05113 12.0739L7.17613 10.1989C7.06629 10.089 7.06629 9.91096 7.17613 9.80113C7.28596 9.69129 7.46404 9.69129 7.57387 9.80113L9.25 11.4773L12.8011 7.92613C12.911 7.81629 13.089 7.81629 13.1989 7.92613Z" fill="#96A4F7" stroke="#91A7F7" stroke-width="0.7" stroke-linecap="round" stroke-linejoin="round"/>
</svg>
